<?xml version="1.0" standalone="no"?>
<!DOCTYPE svg PUBLIC "-//W3C//DTD SVG 20010904//EN"
 "http://www.w3.org/TR/2001/REC-SVG-20010904/DTD/svg10.dtd">
<svg version="1.0" xmlns="http://www.w3.org/2000/svg"
 width="285.000000pt" height="285.000000pt" viewBox="0 0 285.000000 285.000000"
 preserveAspectRatio="xMidYMid meet">
<metadata>
Created by potrace 1.14, written by Peter Selinger 2001-2017
</metadata>
<g transform="translate(0.000000,285.000000) scale(0.100000,-0.100000)"
fill="#000000" stroke="none">
<path d="M1344 2651 c-22 -10 -50 -31 -62 -46 -21 -26 -22 -38 -22 -214 l0
-187 -44 -21 c-60 -29 -113 -78 -139 -127 -19 -37 -22 -61 -27 -226 l-5 -185
-273 -503 c-150 -276 -287 -531 -303 -566 -37 -80 -41 -149 -10 -201 l21 -35
-27 -54 c-25 -52 -26 -55 -9 -80 16 -25 20 -26 111 -26 78 0 98 3 113 18 10
10 125 213 257 452 131 239 281 510 331 603 l93 167 -29 15 c-51 26 -83 80
-88 144 -9 118 72 201 193 201 121 0 202 -83 193 -201 -5 -63 -39 -121 -84
-141 -13 -6 -24 -16 -24 -22 0 -16 652 -1198 672 -1218 15 -15 35 -18 113 -18
91 0 95 1 111 26 17 25 16 28 -9 80 l-27 54 20 32 c31 51 27 128 -10 207 -17
35 -153 289 -303 565 l-272 501 -5 185 c-5 165 -8 189 -27 226 -26 49 -79 98
-139 127 l-44 21 0 187 c0 176 -1 188 -22 214 -47 60 -147 81 -224 46z"/>
</g>
</svg>
