<?xml version="1.0" encoding="UTF-8" standalone="no"?>
<svg
   viewBox="0 0 809.3985 642.46136"
   version="1.1"
   id="svg16"
   sodipodi:docname="docker-angular.svg"
   width="809.3985"
   height="642.46136"
   inkscape:version="1.3 (0e150ed, 2023-07-21)"
   xmlns:inkscape="http://www.inkscape.org/namespaces/inkscape"
   xmlns:sodipodi="http://sodipodi.sourceforge.net/DTD/sodipodi-0.dtd"
   xmlns="http://www.w3.org/2000/svg"
   xmlns:svg="http://www.w3.org/2000/svg"
   xmlns:rdf="http://www.w3.org/1999/02/22-rdf-syntax-ns#"
   xmlns:cc="http://creativecommons.org/ns#"
   xmlns:dc="http://purl.org/dc/elements/1.1/">
  <defs
     id="defs16" />
  <sodipodi:namedview
     id="namedview16"
     pagecolor="#ffffff"
     bordercolor="#999999"
     borderopacity="1"
     inkscape:showpageshadow="2"
     inkscape:pageopacity="0"
     inkscape:pagecheckerboard="0"
     inkscape:deskcolor="#d1d1d1"
     inkscape:zoom="0.47139145"
     inkscape:cx="422.15445"
     inkscape:cy="200.47033"
     inkscape:window-width="1392"
     inkscape:window-height="1052"
     inkscape:window-x="0"
     inkscape:window-y="0"
     inkscape:window-maximized="0"
     inkscape:current-layer="g17" />
  <title
     id="title1">docker-27</title>
  <g
     id="g17"
     transform="rotate(-16.306231,206.9266,682.20534)">
    <g
       id="g16"
       transform="matrix(0.67941086,0.39225804,-0.39225804,0.67941086,159.88708,0.77964927)">
      <path
         d="m 576,250.77 h 89.62 v 91.61 h 45.31 c 21.1839,-0.0986 42.2123,-3.62415 62.27,-10.44 10.53977,-3.4911 20.68508,-8.07609 30.27,-13.68 -12.65,-16.51 -19.11,-37.37 -21,-57.93 -2.59,-28 3.05,-64.36 22,-86.24 l 9.42,-10.9 11.22,9 c 28.27,22.7 52,54.43 56.23,90.61 34,-10 74,-7.65 104,9.67 l 12.3,7.1 -6.47,12.64 c -25.37,49.51 -78.42,64.85 -130.27,62.14 -77.67,193.29 -246.6,284.78 -451.43,284.78 -105.82,0 -202.91,-39.55 -258.2,-133.44 l -0.9,-1.53 -8.06,-16.39 c -18.68,-41.33 -24.89,-86.6 -20.68,-131.84 l 1.26,-13.55 h 76.64 v -91.61 h 89.62 V 161.14 H 468.4 V 71.52 H 576 v 179.25"
         transform="translate(2.12,-71.52)"
         fill="#364548"
         fill-rule="evenodd"
         id="path1"
         sodipodi:nodetypes="cccccccccccccccsccccccccccccc" />
      <path
         d="m 866.31,284.66 c 6,-46.7 -28.94,-83.38 -50.62,-100.8 -25,28.88 -28.86,104.56 10.33,136.42 -21.87,19.43 -67.95,37 -115.14,37 H 136.51 c -4.59,49.25 4.06,94.61 23.81,133.43 l 6.53,12 A 222.12,222.12 0 0 0 180.4,523 q 35.41,2.26 65.3,1.59 v 0 c 39.14,-0.86 71.08,-5.48 95.29,-13.87 a 6.9,6.9 0 0 1 4.52,13 c -3.22,1.12 -6.58,2.16 -10,3.15 v 0 c -19.06,5.44 -39.5,9.11 -65.87,10.73 1.57,0 -1.63,0.24 -1.63,0.24 -0.9,0.06 -2,0.19 -2.93,0.23 -10.38,0.59 -21.58,0.71 -33,0.71 -12.52,0 -24.86,-0.24 -38.65,-0.94 l -0.35,0.23 c 47.85,53.79 122.68,86.05 216.48,86.05 198.52,0 366.89,-88 441.46,-285.55 52.89,5.42 103.73,-8.07 126.86,-53.21 C 941,264.17 893.58,271 866.31,284.66"
         transform="translate(2.12,-71.52)"
         fill="#22a0c8"
         fill-rule="evenodd"
         id="path2" />
      <path
         d="m 866.31,284.66 c 6,-46.7 -28.94,-83.38 -50.62,-100.8 -25,28.88 -28.86,104.56 10.33,136.42 -21.87,19.43 -67.95,37 -115.14,37 H 170.52 c -2.34,75.43 25.65,132.69 75.18,167.3 v 0 c 39.14,-0.86 71.08,-5.48 95.29,-13.87 a 6.9,6.9 0 0 1 4.52,13 c -3.22,1.12 -6.58,2.16 -10,3.15 v 0 a 314.82,314.82 0 0 1 -67.62,11.2 l -0.65,-0.6 c 67.56,34.65 165.52,34.53 277.83,-8.62 C 671,480.54 788.14,388.37 869.9,283 c -1.23,0.56 -2.43,1.13 -3.59,1.71"
         transform="translate(2.12,-71.52)"
         fill="#37b1d9"
         fill-rule="evenodd"
         id="path3" />
      <path
         d="m 137.59,417.16 a 229.47,229.47 0 0 0 22.73,73.59 l 6.53,12 A 222.12,222.12 0 0 0 180.4,523 q 35.41,2.26 65.31,1.59 c 39.14,-0.86 71.08,-5.48 95.29,-13.87 a 6.9,6.9 0 0 1 4.52,13 c -3.22,1.12 -6.58,2.16 -10,3.15 v 0 c -19.06,5.44 -41.13,9.34 -67.5,11 -0.91,0.06 -2.49,0.07 -3.4,0.12 -10.37,0.58 -21.46,0.94 -32.92,0.94 -12.52,0 -25.33,-0.24 -39.11,-1 47.85,53.8 123.14,86.17 216.94,86.17 169.95,0 317.81,-64.5 403.62,-207 H 137.59"
         transform="translate(2.12,-71.52)"
         fill="#1b81a5"
         fill-rule="evenodd"
         id="path4" />
      <path
         d="m 175.69,417.16 c 10.16,46.33 34.58,82.7 70,107.46 39.14,-0.86 71.08,-5.48 95.29,-13.87 a 6.9,6.9 0 0 1 4.52,13 c -3.22,1.12 -6.58,2.16 -10,3.15 v 0 c -19.06,5.44 -41.6,9.34 -68,11 67.55,34.65 165.23,34.15 277.53,-9 67.94,-26.1 133.33,-65 192,-111.76 H 175.69"
         transform="translate(2.12,-71.52)"
         fill="#1d91b4"
         fill-rule="evenodd"
         id="path5" />
      <path
         d="m 214.47,265.7 h 77.67 v 77.68 h -77.67 z m 6.47,6.48 h 6.13 v 64.73 h -6.13 z m 11.52,0 h 6.38 v 64.73 h -6.38 z m 11.77,0 h 6.37 v 64.73 h -6.37 z m 11.77,0 h 6.37 v 64.73 H 256 Z m 11.77,0 h 6.37 v 64.73 h -6.37 z m 11.77,0 h 6.13 v 64.73 h -6.13 z m 24.55,-96.1 h 77.68 v 77.67 h -77.69 v -77.67 z m 6.47,6.48 h 6.13 v 64.72 h -6.13 z m 11.53,0 h 6.37 v 64.72 h -6.37 z m 11.76,0 h 6.38 v 64.72 h -6.38 z m 11.77,0 H 352 v 64.72 h -6.38 z m 11.77,0 h 6.38 v 64.72 h -6.38 z m 11.77,0 h 6.14 v 64.72 h -6.14 z"
         transform="translate(2.12,-71.52)"
         fill="#23a3c2"
         fill-rule="evenodd"
         id="path6" />
      <path
         d="m 304.09,265.7 h 77.68 v 77.68 H 304.08 V 265.7 Z m 6.47,6.48 h 6.13 v 64.73 h -6.13 z m 11.53,0 h 6.37 v 64.73 h -6.37 z m 11.76,0 h 6.38 v 64.73 h -6.38 z m 11.77,0 H 352 v 64.73 h -6.38 z m 11.77,0 h 6.38 v 64.73 h -6.38 z m 11.77,0 h 6.14 v 64.73 h -6.14 z"
         transform="translate(2.12,-71.52)"
         fill="#34bbde"
         fill-rule="evenodd"
         id="path7" />
      <path
         d="m 393.71,265.7 h 77.68 v 77.68 h -77.68 z m 6.48,6.48 h 6.12 v 64.73 h -6.12 z m 11.52,0 h 6.37 v 64.73 h -6.37 z m 11.77,0 h 6.37 v 64.73 h -6.37 z m 11.77,0 h 6.37 v 64.73 h -6.37 z m 11.76,0 h 6.39 v 64.73 H 447 Z m 11.77,0 h 6.13 v 64.73 h -6.13 z"
         transform="translate(2.12,-71.52)"
         fill="#23a3c2"
         fill-rule="evenodd"
         id="path8" />
      <path
         d="m 393.71,176.08 h 77.68 v 77.67 h -77.68 z m 6.48,6.48 h 6.12 v 64.72 h -6.12 z m 11.52,0 h 6.37 v 64.72 h -6.37 z m 11.77,0 h 6.37 v 64.72 h -6.37 z m 11.77,0 h 6.37 v 64.72 h -6.37 z m 11.76,0 h 6.39 v 64.72 H 447 Z m 11.77,0 h 6.13 v 64.72 h -6.13 z m 24.56,83.14 H 561 v 77.68 h -77.66 z m 6.47,6.48 h 6.13 v 64.73 h -6.13 z m 11.52,0 h 6.38 v 64.73 h -6.38 z m 11.77,0 h 6.37 v 64.73 h -6.37 z m 11.77,0 h 6.38 v 64.73 h -6.38 z m 11.77,0 H 543 v 64.73 h -6.38 z m 11.77,0 h 6.13 v 64.73 h -6.13 z"
         transform="translate(2.12,-71.52)"
         fill="#34bbde"
         fill-rule="evenodd"
         id="path9" />
      <path
         d="M 483.34,176.08 H 561 v 77.67 h -77.66 z m 6.47,6.48 h 6.13 v 64.72 h -6.13 z m 11.52,0 h 6.38 v 64.72 h -6.38 z m 11.77,0 h 6.37 v 64.72 h -6.37 z m 11.77,0 h 6.38 v 64.72 h -6.38 z m 11.77,0 H 543 v 64.72 h -6.38 z m 11.77,0 h 6.13 v 64.72 h -6.13 z"
         transform="translate(2.12,-71.52)"
         fill="#23a3c2"
         fill-rule="evenodd"
         id="path10" />
      <path
         d="M 483.34,86.46 H 561 v 77.68 h -77.66 z m 6.47,6.47 h 6.13 v 64.73 h -6.13 V 92.92 Z m 11.52,0 h 6.38 v 64.73 h -6.38 V 92.92 Z m 11.77,0 h 6.37 v 64.73 H 513.1 V 92.92 Z m 11.77,0 h 6.38 v 64.73 h -6.38 V 92.92 Z m 11.77,0 H 543 v 64.73 h -6.38 V 92.92 Z m 11.77,0 h 6.13 v 64.73 h -6.13 V 92.92 Z"
         transform="translate(2.12,-71.52)"
         fill="#34bbde"
         fill-rule="evenodd"
         id="path11" />
      <path
         d="m 573,265.7 h 77.67 v 77.68 H 573 Z m 6.47,6.48 h 6.13 v 64.73 h -6.13 z m 11.52,0 h 6.38 v 64.73 H 591 v -64.73 z m 11.77,0 h 6.38 v 64.73 h -6.38 z m 11.77,0 h 6.38 v 64.73 h -6.38 z m 11.77,0 h 6.38 v 64.73 h -6.38 z m 11.77,0 h 6.13 v 64.73 H 638 Z"
         transform="translate(2.12,-71.52)"
         fill="#23a3c2"
         fill-rule="evenodd"
         id="path12" />
      <path
         d="m 376.9,469.31 a 21.431895,21.431895 0 1 1 0.57,42.86 h -0.57 a 21.43,21.43 0 0 1 0,-42.86"
         transform="translate(2.12,-71.52)"
         fill="#d3ecec"
         fill-rule="evenodd"
         id="path13" />
      <path
         d="m 376.9,475.39 c 1.89924,-0.0135 3.78449,0.32556 5.56,1 -3.59695,2.0702 -4.2204,7.00374 -1.25158,9.90368 2.96883,2.89995 7.88637,2.16087 9.87158,-1.48368 5.79314,13.99351 -10.06186,27.00463 -22.65603,18.60259 C 355.82979,495.01056 361.75476,475.37475 376.9,475.35"
         transform="translate(2.12,-71.52)"
         fill="#364548"
         fill-rule="evenodd"
         id="path14"
         sodipodi:nodetypes="ccscsc" />
      <path
         d="m 433.87,623.73 c -53.07,-25.18 -82.2,-59.42 -98.41,-96.79 q -29.56,8.44 -70.94,10.77 -15.55,0.87 -32.73,0.88 -19.8,0 -41.71,-1.16 c 48.67,48.64 108.54,86.08 219.39,86.76 q 12.28,0 24.4,-0.46"
         transform="translate(2.12,-71.52)"
         fill="#bdd9d7"
         fill-rule="evenodd"
         id="path15" />
      <path
         d="m 355.17,561.43 a 186,186 0 0 1 -19.69,-34.49 c -19.72,5.63 -43.42,9.23 -71,10.78 18.92,10.26 46,19.77 90.66,23.71"
         transform="translate(2.12,-71.52)"
         fill="#d3ecec"
         fill-rule="evenodd"
         id="path16" />
    </g>
    <g
       id="g2"
       transform="matrix(3.1036566,0.83162229,-0.83162229,3.1036566,324.32933,-85.115713)">
      <polygon
         class="st0"
         points="125,230 203.9,186.3 218.1,63.2 125,30 31.9,63.2 46.1,186.3 "
         id="polygon1"
         style="fill:#dd0031" />
      <polygon
         class="st1"
         points="125,52.1 125,153.4 125,230 203.9,186.3 218.1,63.2 125,30 125,52.2 "
         id="polygon2"
         style="fill:#c3002f" />
      <path
         class="st2"
         d="M 125,52.1 66.8,182.6 v 0 h 21.7 v 0 l 11.7,-29.2 h 49.4 l 11.7,29.2 v 0 H 183 v 0 z m 17,83.3 h -34 l 17,-40.9 z"
         id="path2-7"
         style="fill:#ffffff" />
    </g>
  </g>
  <metadata
     id="metadata17">
    <rdf:RDF>
      <cc:Work
         rdf:about="">
        <dc:title>docker-27</dc:title>
      </cc:Work>
    </rdf:RDF>
  </metadata>
</svg>
