<?xml version="1.0" encoding="UTF-8" standalone="no"?>
<svg
   xmlns:dc="http://purl.org/dc/elements/1.1/"
   xmlns:cc="http://creativecommons.org/ns#"
   xmlns:rdf="http://www.w3.org/1999/02/22-rdf-syntax-ns#"
   xmlns:svg="http://www.w3.org/2000/svg"
   xmlns="http://www.w3.org/2000/svg"
   xmlns:sodipodi="http://sodipodi.sourceforge.net/DTD/sodipodi-0.dtd"
   xmlns:inkscape="http://www.inkscape.org/namespaces/inkscape"
   viewBox="0 0 150 150"
   version="1.1"
   id="svg878"
   sodipodi:docname="logo.svg"
   inkscape:version="1.0.1 (c497b03c, 2020-09-10)"
   width="150"
   height="150">
  <metadata
     id="metadata884">
    <rdf:RDF>
      <cc:Work
         rdf:about="">
        <dc:format>image/svg+xml</dc:format>
        <dc:type
           rdf:resource="http://purl.org/dc/dcmitype/StillImage" />
        <dc:title></dc:title>
      </cc:Work>
    </rdf:RDF>
  </metadata>
  <defs
     id="defs882">
    <marker
       style="overflow:visible"
       id="marker3467"
       refX="0"
       refY="0"
       orient="auto"
       inkscape:stockid="Arrow1Lend"
       inkscape:isstock="true">
      <path
         transform="matrix(-0.8,0,0,-0.8,-10,0)"
         style="fill-rule:evenodd;stroke:#000000;stroke-width:1pt"
         d="M 0,0 5,-5 -12.5,0 5,5 Z"
         id="path3465" />
    </marker>
    <marker
       style="overflow:visible"
       id="marker3463"
       refX="0"
       refY="0"
       orient="auto"
       inkscape:stockid="Arrow1Lstart"
       inkscape:isstock="true">
      <path
         transform="matrix(0.8,0,0,0.8,10,0)"
         style="fill-rule:evenodd;stroke:#000000;stroke-width:1pt"
         d="M 0,0 5,-5 -12.5,0 5,5 Z"
         id="path3461" />
    </marker>
    <marker
       style="overflow:visible"
       id="Arrow1Lend"
       refX="0"
       refY="0"
       orient="auto"
       inkscape:stockid="Arrow1Lend"
       inkscape:isstock="true">
      <path
         transform="matrix(-0.8,0,0,-0.8,-10,0)"
         style="fill-rule:evenodd;stroke:#000000;stroke-width:1pt"
         d="M 0,0 5,-5 -12.5,0 5,5 Z"
         id="path3170" />
    </marker>
    <marker
       style="overflow:visible"
       id="marker3439"
       refX="0"
       refY="0"
       orient="auto"
       inkscape:stockid="Arrow1Lstart"
       inkscape:isstock="true">
      <path
         transform="matrix(0.8,0,0,0.8,10,0)"
         style="fill-rule:evenodd;stroke:#000000;stroke-width:1pt"
         d="M 0,0 5,-5 -12.5,0 5,5 Z"
         id="path3437" />
    </marker>
    <marker
       style="overflow:visible"
       id="Arrow1Lstart"
       refX="0"
       refY="0"
       orient="auto"
       inkscape:stockid="Arrow1Lstart"
       inkscape:isstock="true">
      <path
         transform="matrix(0.8,0,0,0.8,10,0)"
         style="fill-rule:evenodd;stroke:#000000;stroke-width:1pt"
         d="M 0,0 5,-5 -12.5,0 5,5 Z"
         id="path3167" />
    </marker>
  </defs>
  <sodipodi:namedview
     pagecolor="#ffffff"
     bordercolor="#666666"
     borderopacity="1"
     objecttolerance="10"
     gridtolerance="10"
     guidetolerance="10"
     inkscape:pageopacity="0"
     inkscape:pageshadow="2"
     inkscape:window-width="1358"
     inkscape:window-height="480"
     id="namedview880"
     showgrid="false"
     inkscape:zoom="2.1099863"
     inkscape:cx="111.6283"
     inkscape:cy="76.432453"
     inkscape:window-x="0"
     inkscape:window-y="0"
     inkscape:window-maximized="1"
     inkscape:current-layer="svg878"
     inkscape:document-rotation="0"
     fit-margin-top="0"
     fit-margin-left="0"
     fit-margin-right="0"
     fit-margin-bottom="0" />
  <style
     type="text/css"
     id="style1483">
	.st0{fill:#764ABC;}
</style>
  <g
     inkscape:label="Layer 1"
     id="layer1"
     transform="matrix(1.9217936,0,0,1.9217936,-126.78833,-210.38635)"
     inkscape:export-xdpi="96"
     inkscape:export-ydpi="96"
     inkscape:export-filename="/Users/scotch-83/logo.png">
    <circle
       style="fill:#ffffde;fill-opacity:1;stroke:none;stroke-width:2.00703;stroke-linecap:round;stroke-linejoin:round;stroke-miterlimit:4;stroke-dasharray:none;stroke-dashoffset:0;stroke-opacity:1"
       id="path4384"
       cx="105"
       cy="148.5"
       inkscape:export-xdpi="102.8339"
       inkscape:export-ydpi="102.8339"
       r="39.026043" />
    <g
       id="g3095"
       style="opacity:1" />
    <path
       id="path3567"
       style="fill:#000000;fill-opacity:1;fill-rule:nonzero;stroke:#000000;stroke-width:2.09806;stroke-miterlimit:4;stroke-dasharray:none;stroke-opacity:1"
       d="m 104.99883,114.44755 c -1.89029,0 -3.57195,1.15383 -3.57195,2.47018 v 10.52588 c -1.07746,0.27969 -2.066007,0.68684 -2.911677,1.21401 -1.947066,1.22151 -2.967734,2.94506 -2.967734,4.99448 v 8.55044 L 79.4601,171.88453 c -1.247629,2.33441 -2.306594,5.21163 0.396688,6.90826 l -1.795173,3.13536 c -0.07591,0.13605 -0.05698,0.29829 0.05604,0.42059 0.11358,0.13566 0.303098,0.20372 0.510531,0.20372 h 3.856556 c 0.264826,0 0.491451,-0.10839 0.585839,-0.28481 l 20.964109,-38.07022 h 0.96414 0.0194 0.96414 l 20.94573,38.07022 c 0.0944,0.17633 0.32099,0.28481 0.58583,0.28481 h 3.85566 c 0.20804,0 0.39721,-0.068 0.51142,-0.19049 0.11305,-0.12191 0.13212,-0.28498 0.057,-0.42061 l -1.79607,-3.13476 c 2.70269,-1.70989 1.64492,-4.57391 0.39669,-6.92207 l -16.08736,-29.68199 v -8.55044 c 0,-2.04942 -1.02007,-3.78628 -2.96771,-4.99448 -0.84522,-0.52686 -1.83378,-0.9337 -2.91083,-1.21339 v -10.52649 c 0,-1.31634 -1.68345,-2.47018 -3.5737,-2.47018 z"
       inkscape:export-xdpi="102.8339"
       inkscape:export-ydpi="102.8339" />
    <g
       id="g4386"
       style="opacity:1;stroke:none"
       transform="matrix(1.7794143,0,0,1.7794143,-81.838497,-112.03128)"
       inkscape:export-xdpi="102.8339"
       inkscape:export-ydpi="102.8339">
      <path
         style="color:#000000;font-style:normal;font-variant:normal;font-weight:normal;font-stretch:normal;font-size:medium;line-height:normal;font-family:sans-serif;font-variant-ligatures:normal;font-variant-position:normal;font-variant-caps:normal;font-variant-numeric:normal;font-variant-alternates:normal;font-variant-east-asian:normal;font-feature-settings:normal;font-variation-settings:normal;text-indent:0;text-align:start;text-decoration:none;text-decoration-line:none;text-decoration-style:solid;text-decoration-color:#000000;letter-spacing:normal;word-spacing:normal;text-transform:none;writing-mode:lr-tb;direction:ltr;text-orientation:mixed;dominant-baseline:auto;baseline-shift:baseline;text-anchor:start;white-space:normal;shape-padding:0;shape-margin:0;inline-size:0;clip-rule:nonzero;display:inline;overflow:visible;visibility:visible;isolation:auto;mix-blend-mode:normal;color-interpolation:sRGB;color-interpolation-filters:linearRGB;solid-color:#000000;solid-opacity:1;vector-effect:none;fill:#ebc600;fill-opacity:1;fill-rule:nonzero;stroke:none;stroke-width:2.43073;stroke-linecap:butt;stroke-linejoin:miter;stroke-miterlimit:4;stroke-dasharray:none;stroke-dashoffset:0;stroke-opacity:1;color-rendering:auto;image-rendering:auto;shape-rendering:auto;text-rendering:auto;enable-background:accumulate;stop-color:#000000;stop-opacity:1"
         d="m 104.99805,140.69922 c 1.86733,0 3.19726,1.30509 3.19726,3.03906 0,1.73396 -1.32921,3.03906 -3.19726,3.03906 -1.86803,0 -3.19336,-1.30432 -3.19336,-3.03906 0,-1.73475 1.32605,-3.03906 3.19336,-3.03906 z"
         id="path4394" />
    </g>
  </g>
</svg>
