<?xml version="1.0" encoding="UTF-8" standalone="no"?>
<svg
   viewBox="0 0 158.38596 195.9451"
   version="1.1"
   id="svg8"
   sodipodi:docname="python.svg"
   inkscape:version="1.3 (0e150ed, 2023-07-21)"
   width="158.38596"
   height="195.9451"
   xmlns:inkscape="http://www.inkscape.org/namespaces/inkscape"
   xmlns:sodipodi="http://sodipodi.sourceforge.net/DTD/sodipodi-0.dtd"
   xmlns="http://www.w3.org/2000/svg"
   xmlns:svg="http://www.w3.org/2000/svg"
   xmlns:rdf="http://www.w3.org/1999/02/22-rdf-syntax-ns#"
   xmlns:cc="http://creativecommons.org/ns#"
   xmlns:dc="http://purl.org/dc/elements/1.1/">
  <sodipodi:namedview
     id="namedview8"
     pagecolor="#ffffff"
     bordercolor="#999999"
     borderopacity="1"
     inkscape:showpageshadow="2"
     inkscape:pageopacity="0"
     inkscape:pagecheckerboard="0"
     inkscape:deskcolor="#d1d1d1"
     inkscape:zoom="1.0801469"
     inkscape:cx="116.6508"
     inkscape:cy="37.494901"
     inkscape:window-width="1392"
     inkscape:window-height="1052"
     inkscape:window-x="0"
     inkscape:window-y="0"
     inkscape:window-maximized="0"
     inkscape:current-layer="svg8" />
  <defs
     id="defs6">
    <linearGradient
       id="a"
       x1="319.45999"
       y1="219.78999"
       x2="478.85999"
       y2="82.650002"
       gradientTransform="matrix(0.56,0,0,-0.57,-183.69,129.51)"
       gradientUnits="userSpaceOnUse">
      <stop
         offset="0"
         stop-color="#5a9fd4"
         id="stop1" />
      <stop
         offset="1"
         stop-color="#306998"
         id="stop2" />
    </linearGradient>
    <linearGradient
       id="b"
       x1="540.47998"
       y1="-0.34999999"
       x2="483.56"
       y2="80.18"
       gradientTransform="matrix(0.56,0,0,-0.57,-183.69,129.51)"
       gradientUnits="userSpaceOnUse">
      <stop
         offset="0"
         stop-color="#ffd43b"
         id="stop3" />
      <stop
         offset="1"
         stop-color="#ffe873"
         id="stop4" />
    </linearGradient>
    <radialGradient
       id="c"
       cx="-809.20001"
       cy="196.83"
       r="42.459999"
       gradientTransform="matrix(0,-0.24,-1.5495515,0,386.12355,-8.4049044)"
       gradientUnits="userSpaceOnUse">
      <stop
         offset="0"
         stop-color="#b8b8b8"
         stop-opacity="0.5"
         id="stop5" />
      <stop
         offset="1"
         stop-color="#7f7f7f"
         stop-opacity="0"
         id="stop6" />
    </radialGradient>
  </defs>
  <title
     id="title6">python-logo</title>
  <g
     id="g8"
     transform="rotate(-30,78.567551,85.16276)">
    <path
       d="M 80.27,0 A 111.94,111.94 0 0 0 61.54,1.6 c -16.59,2.93 -19.6,9.07 -19.6,20.38 v 14.94 h 39.2 v 5 H 27.27 c -11.39,0 -21.37,6.85 -24.49,19.88 -3.6,14.93 -3.76,24.25 0,39.84 2.79,11.61 9.44,19.88 20.84,19.88 H 37.1 v -17.94 c 0,-12.94 11.2,-24.35 24.49,-24.35 h 39.16 a 19.75,19.75 0 0 0 19.6,-19.92 V 21.98 c 0,-10.62 -9,-18.61 -19.6,-20.38 A 122.28,122.28 0 0 0 80.27,0 Z m -21.2,12 a 7.47,7.47 0 1 1 -7.36,7.49 7.44,7.44 0 0 1 7.39,-7.47 z"
       style="fill:url(#a)"
       id="path6" />
    <path
       d="m 125.22,41.9 v 17.41 c 0,13.5 -11.44,24.86 -24.49,24.86 H 61.57 c -10.73,0 -19.6,9.18 -19.6,19.92 v 37.36 c 0,10.62 9.24,16.87 19.6,19.92 12.41,3.65 24.31,4.31 39.16,0 9.87,-2.86 19.6,-8.61 19.6,-19.92 v -15 H 81.17 v -5 h 58.76 c 11.39,0 15.64,-7.95 19.6,-19.88 4.09,-12.28 3.92,-24.09 0,-39.84 -2.82,-11.34 -8.19,-19.88 -19.6,-19.88 z m -22,94.54 a 7.47,7.47 0 1 1 -7.36,7.45 7.4,7.4 0 0 1 7.33,-7.44 z"
       style="fill:url(#b)"
       id="path7" />
  </g>
  <path
     d="m 157.29169,185.7551 c 0,5.63 -34.70995,10.19 -77.536596,10.19 -42.82665,0 -77.5366015,-4.56 -77.5366015,-10.19 0,-5.63 34.7099515,-10.19 77.5366015,-10.19 42.826646,0 77.536596,4.57 77.536596,10.19 z"
     style="opacity:0.44382;isolation:isolate;fill:url(#c);stroke-width:1.21481"
     id="path8" />
  <metadata
     id="metadata8">
    <rdf:RDF>
      <cc:Work
         rdf:about="">
        <dc:title>python-logo</dc:title>
      </cc:Work>
    </rdf:RDF>
  </metadata>
</svg>
