<?xml version="1.0" encoding="UTF-8" standalone="no"?>
<!-- Created with Inkscape (http://www.inkscape.org/) -->

<svg
   width="593.24408mm"
   height="544.58752mm"
   viewBox="0 0 593.24408 544.58752"
   version="1.1"
   id="svg1"
   xml:space="preserve"
   inkscape:version="1.3 (0e150ed, 2023-07-21)"
   sodipodi:docname="react-angular.svg"
   xmlns:inkscape="http://www.inkscape.org/namespaces/inkscape"
   xmlns:sodipodi="http://sodipodi.sourceforge.net/DTD/sodipodi-0.dtd"
   xmlns="http://www.w3.org/2000/svg"
   xmlns:svg="http://www.w3.org/2000/svg"><sodipodi:namedview
     id="namedview1"
     pagecolor="#ffffff"
     bordercolor="#999999"
     borderopacity="1"
     inkscape:showpageshadow="2"
     inkscape:pageopacity="0"
     inkscape:pagecheckerboard="0"
     inkscape:deskcolor="#d1d1d1"
     inkscape:document-units="mm"
     showgrid="false"
     inkscape:zoom="0.13276616"
     inkscape:cx="1675.8788"
     inkscape:cy="2255.8459"
     inkscape:window-width="1392"
     inkscape:window-height="1052"
     inkscape:window-x="0"
     inkscape:window-y="0"
     inkscape:window-maximized="0"
     inkscape:current-layer="layer1" /><defs
     id="defs1"><filter
       style="color-interpolation-filters:sRGB"
       inkscape:label="Drop Shadow"
       id="filter5624"
       x="0"
       y="0"
       width="1.092368"
       height="1.0956355"><feFlood
         flood-opacity="0.498039"
         flood-color="rgb(0,0,0)"
         result="flood"
         id="feFlood5614" /><feComposite
         in="SourceGraphic"
         in2="flood"
         operator="in"
         result="composite1"
         id="feComposite5616" /><feGaussianBlur
         in="composite1"
         stdDeviation="0"
         result="blur"
         id="feGaussianBlur5618" /><feOffset
         dx="19.2308"
         dy="18.8963"
         result="offset"
         id="feOffset5620" /><feComposite
         in="SourceGraphic"
         in2="offset"
         operator="over"
         result="composite2"
         id="feComposite5622" /></filter></defs><g
     inkscape:label="Layer 1"
     inkscape:groupmode="layer"
     id="layer1"
     transform="translate(220.43362,147.56052)"><g
       id="g2"
       transform="matrix(2.2074872,0,0,2.2074872,-108.6425,-212.98712)">&#10;	<polygon
   class="st0"
   points="31.9,63.2 46.1,186.3 125,230 203.9,186.3 218.1,63.2 125,30 "
   id="polygon1"
   style="fill:#dd0031" />&#10;	<polygon
   class="st1"
   points="125,52.2 125,52.1 125,153.4 125,230 203.9,186.3 218.1,63.2 125,30 "
   id="polygon2"
   style="fill:#c3002f" />&#10;	<path
   class="st2"
   d="M 125,52.1 66.8,182.6 v 0 h 21.7 v 0 l 11.7,-29.2 h 49.4 l 11.7,29.2 v 0 H 183 v 0 z m 17,83.3 h -34 l 17,-40.9 z"
   id="path2"
   style="fill:#ffffff" />&#10;</g><g
       id="g1"
       transform="matrix(0.65242274,0,0,0.65242274,-277.63847,-145.72651)"><g
         id="XMLID_1_"
         transform="matrix(2.9555292,0,0,2.9555292,-114.36216,-205.33869)"><path
           id="XMLID_2_"
           class="st0"
           d="m 183.38187,220.76502 c 7.7004,-0.79856 13.51848,-7.4152 13.23328,-15.34377 -0.2852,-7.92856 -6.90184,-14.31704 -14.8304,-14.31704 h -0.51336 c -8.21377,0.2852 -14.54521,7.13 -14.31705,15.34376 0.2852,3.99281 1.88232,7.41521 4.22096,9.81089 -9.01232,17.73945 -22.75897,30.74458 -43.4645,41.58218 -14.03185,7.41521 -28.634101,10.09609 -43.179311,8.21377 -11.92136,-1.59712 -21.21889,-6.90185 -27.03697,-15.62897 -8.49897,-13.00513 -9.29753,-27.03698 -2.11048,-41.06882 5.01952,-10.09609 13.00512,-17.51129 18.02465,-21.2189 -1.08376,-3.4224 -2.62384,-9.29752 -3.42241,-13.51848 -38.38794,27.83553 -34.45217,65.42491 -22.75897,83.2214 8.72713,13.23329 26.46658,21.44705 46.08835,21.44705 5.30472,0 10.609441,-0.51336 15.914171,-1.88232 33.88178,-6.5596 59.60683,-26.69473 74.15204,-56.64075 z m 46.65874,-32.85506 C 209.90548,164.35243 180.24467,151.3473 146.30585,151.3473 h -4.22097 c -2.39568,-4.79136 -7.4152,-7.92856 -13.00512,-7.92856 h -0.51336 c -8.21377,0.2852 -14.54521,7.13 -14.31705,15.34377 0.2852,7.92856 6.90184,14.31705 14.83041,14.31705 h 0.51336 c 5.81808,-0.2852 10.8376,-3.99281 13.00512,-9.01233 h 4.79137 c 20.13513,0 39.1865,5.81808 56.41259,17.22609 13.23329,8.72712 22.75897,20.13513 28.06369,33.93882 4.50617,11.1228 4.22097,22.01745 -0.51336,31.25794 -7.4152,14.03184 -19.84993,21.73225 -36.27746,21.73225 -10.60944,0 -20.64849,-3.19424 -25.95321,-5.58993 -2.90904,2.62385 -8.21376,6.90185 -11.92137,9.52569 11.40801,5.30472 23.04418,8.21376 34.16698,8.21376 25.43986,0 44.26307,-14.03184 51.39307,-28.06369 7.64336,-15.34377 7.13,-41.86738 -12.71993,-64.3982 z M 95.426139,225.27118 c 0.2852,7.92857 6.901841,14.31705 14.830411,14.31705 h 0.51336 c 8.21376,-0.2852 14.54521,-7.13 14.31705,-15.34377 -0.28521,-7.92856 -6.90185,-14.31704 -14.83041,-14.31704 h -0.51336 c -0.51336,0 -1.31192,0 -1.88232,0.2852 -10.837611,-18.02465 -15.343771,-37.64642 -13.803691,-58.80828 1.08376,-15.91417 6.331441,-29.66081 15.628971,-41.06882 7.7004,-9.81088 22.53081,-14.545212 32.56985,-14.830412 28.0637,-0.51336 39.98507,34.452182 40.78363,48.484032 3.4224,0.79856 9.29752,2.62384 13.23328,3.9928 -3.19424,-42.8941 -29.66081,-65.196752 -55.10067,-65.196752 -23.84273,0 -45.860181,17.226082 -54.587311,42.665942 -12.20656,33.93882 -4.22096,66.50868 10.60945,92.17669 -1.25488,1.82528 -2.05344,4.73432 -1.76824,7.64336 z"
           style="stroke-width:0.5704;filter:url(#filter5624)"
           transform="matrix(1.1490565,0,0,1.1490565,23.396986,7.0741202)" /></g></g></g><style
     type="text/css"
     id="style5042">&#10;	.st0{fill:#764ABC;}&#10;</style></svg>
